# xmcd CD database file
#
# Track frame offsets:
#	150
#	24275
#	43772
#	63965
#	87527
#	114926
#	128772
#	150333
#	177333
#	195703
#	220372
#	238608
#	260042
#
# Disc length: 3783 seconds
#
# Revision: 3
# Processed by: cddbd v1.5.2PL0 Copyright (c) Steve Scherf et al.
# Submitted via: CDex 1.51
#
DISCID=af0ec50d
DTITLE=?????? - ??~two as one~
DYEAR=2007
DGENRE=New Age
TTITLE0=??
TTITLE1=??????? (POLOVTSIAN DANCES)
TTITLE2=grief ? ???? ?
TTITLE3=Bright Moon ? ???? ?
TTITLE4=?
TTITLE5=Nessun Dorma ? ?????????????? ?
TTITLE6=jasmine ? ??? ?
TTITLE7=???? ??????
TTITLE8=???? ? ??? ?
TTITLE9=???? ? ???????? ?
TTITLE10=????
TTITLE11=?????? ?heart float version?
TTITLE12=?? ? two as one ?
EXTD=YEAR: 2007
EXTT0=
EXTT1=
EXTT2=
EXTT3=
EXTT4=
EXTT5=
EXTT6=
EXTT7=
EXTT8=
EXTT9=
EXTT10=
EXTT11=
EXTT12=
PLAYORDER=
